<?xml version="1.0" encoding="UTF-8"?>
<svg id="Layer_1" data-name="Layer 1" xmlns="http://www.w3.org/2000/svg" version="1.1" viewBox="0 0 512 512">
  <defs>
    <style>
      .cls-1 {
        fill: #16465a;
        stroke-width: 0px;
      }
    </style>
  </defs>
  <path class="cls-1" d="M0,192c0-35.3,28.7-64,64-64h1.6c7.4-36.5,39.7-64,78.4-64s29,4.1,40.9,11.2c13.3-25.6,40.2-43.2,71.1-43.2s57.8,17.6,71.1,43.2c11.9-7.1,25.9-11.2,40.9-11.2,38.7,0,71,27.5,78.4,64h1.6c35.3,0,64,28.7,64,64s-3.1,22.6-8.6,32H8.6c-5.5-9.4-8.6-20.3-8.6-32ZM0,283.4c0-15.1,12.3-27.4,27.4-27.4h457.2c15.1,0,27.4,12.3,27.4,27.4,0,70.5-44.4,130.7-106.7,154.1l-1.8,14.5c-2,16-15.6,28-31.8,28h-231.5c-16.1,0-29.8-12-31.8-28l-1.8-14.4C44.4,414.1,0,353.9,0,283.4Z"/>
</svg>