<?xml version="1.0" encoding="UTF-8"?>
<svg id="Layer_1" data-name="Layer 1" xmlns="http://www.w3.org/2000/svg" version="1.1" viewBox="0 0 512 512">
  <defs>
    <style>
      .cls-1 {
        fill: #16465a;
        stroke-width: 0px;
      }
    </style>
  </defs>
  <path class="cls-1" d="M149.1,64.8l-10.4,31.2h-74.7C28.7,96,0,124.7,0,160v256c0,35.3,28.7,64,64,64h384c35.3,0,64-28.7,64-64V160c0-35.3-28.7-64-64-64h-74.7l-10.4-31.2c-6.5-19.6-24.8-32.8-45.5-32.8h-122.8c-20.7,0-39,13.2-45.5,32.8ZM256,192c53,0,96,43,96,96s-43,96-96,96-96-43-96-96,43-96,96-96Z"/>
</svg>