<?xml version="1.0" encoding="UTF-8"?>
<svg id="Layer_1" data-name="Layer 1" xmlns="http://www.w3.org/2000/svg" version="1.1" viewBox="0 0 512 512">
  <defs>
    <style>
      .cls-1 {
        fill: #16465a;
        stroke-width: 0px;
      }
    </style>
  </defs>
  <path class="cls-1" d="M266.3,48.3l-33.8,25.3c-5.4,4-8.5,10.4-8.5,17.1v9.1c0,6.8,5.5,12.3,12.3,12.3s4.8-.7,6.8-2.1l41.8-27.9c2-1.3,4.4-2.1,6.8-2.1h1c6.2,0,11.3,5.1,11.3,11.3s-1.2,5.9-3.3,8l-19.9,19.9c-5.8,5.8-12.9,10.2-20.7,12.8l-26.5,8.8c-5.8,1.9-9.6,7.3-9.6,13.4s-1.5,7.3-4.1,10l-17.9,17.9c-6.4,6.4-9.9,15-9.9,24v4.3c0,16.4,13.6,29.7,29.9,29.7s21.2-6.2,26.1-16l4-8.1c2.4-4.8,7.4-7.9,12.8-7.9s8.7,2.1,11.4,5.7l16.3,21.7c2.1,2.9,5.5,4.5,9.1,4.5,8.4,0,13.9-8.9,10.1-16.4l-1.1-2.3c-3.5-7,0-15.5,7.5-18l21.2-7.1c7.6-2.5,12.7-9.6,12.7-17.6s8.3-18.6,18.6-18.6h29.3c8.8,0,16,7.2,16,16s-7.2,16-16,16h-20.7c-7.2,0-14.2,2.9-19.3,8l-4.7,4.7c-2.1,2.1-3.3,5-3.3,8,0,6.2,5.1,11.3,11.3,11.3h11.3c6,0,11.8,2.4,16,6.6l6.5,6.5c1.8,1.8,2.8,4.3,2.8,6.8s-1,5-2.8,6.8l-7.5,7.5c-3.6,3.8-5.6,8.7-5.6,13.8s2,10,5.7,13.7l18.3,18.3c10.2,10.2,24.1,16,38.6,16h7.4c6.5-20.2,10-41.7,10-64,0-111.4-87.6-202.4-197.7-207.7ZM438.3,356.2c-3.7-2.6-8.2-4.1-13-4.1s-11.8-2.4-16-6.6l-13.3-13.5c-7.7-7.7-18-12-28.9-12s-19.2-3.5-26.6-9.8l-26.5-22.8c-11.6-9.9-26.4-15.4-41.7-15.4h-20.9c-12.6,0-25,3.7-35.5,10.7l-27.4,18.3c-17.8,11.9-28.5,31.9-28.5,53.3v3.2c0,17,6.7,33.3,18.7,45.3l16,16c8.5,8.5,20,13.3,32,13.3h21.3c13.3,0,24,10.7,24,24s.4,5,1.1,7.3c71.3-5.8,132.5-47.6,165.2-107.2h0ZM0,256C0,114.6,114.6,0,256,0s256,114.6,256,256-114.6,256-256,256S0,397.4,0,256ZM187.3,100.7c-6.2-6.2-16.4-6.2-22.6,0l-32,32c-6.2,6.2-6.2,16.4,0,22.6s16.4,6.2,22.6,0l32-32c6.2-6.2,6.2-16.4,0-22.6Z"/>
</svg>